name analog
datacolumns 19
datarows 64
range 1.1515 1.183
endheader
time	ground_force_vx	ground_force_vy	ground_force_vz	ground_force_px	ground_force_py	ground_force_pz	l_ground_force_vx	l_ground_force_vy	l_ground_force_vz	l_ground_force_px	l_ground_force_py	l_ground_force_pz	ground_torque_x	ground_torque_y	ground_torque_z	l_ground_torque_x	l_ground_torque_y	l_ground_torque_z
1.1515	-0.0	-0.0	-0.0	-8.297943115234375	-8.388887405395508	-984.0014038085938	-0.0	-0.0	-0.0	-0.0	-0.0	-0.0	-0.0	-0.0	-0.0	-0.0	-0.0	-0.0
1.1520000000000001	-0.0	-0.0	-0.0	-8.863306999206543	-8.579242706298828	-982.241943359375	-0.0	-0.0	-0.0	-0.0	-0.0	-0.0	-0.0	-0.0	-0.0	-0.0	-0.0	-0.0
1.1525	-0.0	-0.0	-0.0	-9.545524597167969	-8.523387908935547	-981.799560546875	-0.0	-0.0	-0.0	-0.0	-0.0	-0.0	-0.0	-0.0	-0.0	-0.0	-0.0	-0.0
1.153	-0.0	-0.0	-0.0	-10.437629699707031	-8.325024604797363	-982.2845458984376	-0.0	-0.0	-0.0	-0.0	-0.0	-0.0	-0.0	-0.0	-0.0	-0.0	-0.0	-0.0
1.1535	-0.0	-0.0	-0.0	-11.091922760009766	-8.312216758728027	-981.6699829101562	-0.0	-0.0	-0.0	-0.0	-0.0	-0.0	-0.0	-0.0	-0.0	-0.0	-0.0	-0.0
1.154	-0.0	-0.0	-0.0	-12.59221649169922	-8.279415130615234	-981.1723022460938	-0.0	-0.0	-0.0	-0.0	-0.0	-0.0	-0.0	-0.0	-0.0	-0.0	-0.0	-0.0
1.1545	-0.0	-0.0	-0.0	-12.987595558166504	-7.275794982910156	-980.7806396484376	-0.0	-0.0	-0.0	-0.0	-0.0	-0.0	-0.0	-0.0	-0.0	-0.0	-0.0	-0.0
1.155	-0.0	-0.0	-0.0	-13.484869956970217	-7.4212775230407715	-983.8663330078124	-0.0	-0.0	-0.0	-0.0	-0.0	-0.0	-0.0	-0.0	-0.0	-0.0	-0.0	-0.0
1.1555	-0.0	-0.0	-0.0	-13.592792510986328	-6.708379745483398	-985.2785034179688	-0.0	-0.0	-0.0	-0.0	-0.0	-0.0	-0.0	-0.0	-0.0	-0.0	-0.0	-0.0
1.156	-0.0	-0.0	-0.0	-13.28334140777588	-6.530218601226807	-986.5029907226562	-0.0	-0.0	-0.0	-0.0	-0.0	-0.0	-0.0	-0.0	-0.0	-0.0	-0.0	-0.0
1.1565	-0.0	-0.0	-0.0	-12.49827766418457	-6.675982475280762	-988.1029663085938	-0.0	-0.0	-0.0	-0.0	-0.0	-0.0	-0.0	-0.0	-0.0	-0.0	-0.0	-0.0
1.157	-0.0	-0.0	-0.0	-11.864997863769531	-6.676131725311279	-991.6950073242188	-0.0	-0.0	-0.0	-0.0	-0.0	-0.0	-0.0	-0.0	-0.0	-0.0	-0.0	-0.0
1.1575	-0.0	-0.0	-0.0	-11.321258544921877	-6.911169052124023	-993.046630859375	-0.0	-0.0	-0.0	-0.0	-0.0	-0.0	-0.0	-0.0	-0.0	-0.0	-0.0	-0.0
1.158	-0.0	-0.0	-0.0	-10.518582344055176	-7.373613357543945	-993.68701171875	-0.0	-0.0	-0.0	-0.0	-0.0	-0.0	-0.0	-0.0	-0.0	-0.0	-0.0	-0.0
1.1585	-0.0	-0.0	-0.0	-9.902366638183594	-7.462644100189209	-996.2885131835938	-0.0	-0.0	-0.0	-0.0	-0.0	-0.0	-0.0	-0.0	-0.0	-0.0	-0.0	-0.0
1.159	-0.0	-0.0	-0.0	-9.139779090881348	-7.041301727294922	-995.0674438476562	-0.0	-0.0	-0.0	-0.0	-0.0	-0.0	-0.0	-0.0	-0.0	-0.0	-0.0	-0.0
1.1595	-0.0	-0.0	-0.0	-9.140957832336426	-6.952171325683594	-997.0938110351562	-0.0	-0.0	-0.0	-0.0	-0.0	-0.0	-0.0	-0.0	-0.0	-0.0	-0.0	-0.0
1.16	-0.0	-0.0	-0.0	-8.71793270111084	-6.52162504196167	-998.2521362304688	-0.0	-0.0	-0.0	-0.0	-0.0	-0.0	-0.0	-0.0	-0.0	-0.0	-0.0	-0.0
1.1605	-0.0	-0.0	-0.0	-8.903549194335938	-6.385233879089356	-995.6834716796876	-0.0	-0.0	-0.0	-0.0	-0.0	-0.0	-0.0	-0.0	-0.0	-0.0	-0.0	-0.0
1.161	-0.0	-0.0	-0.0	-9.75607967376709	-5.64732027053833	-995.671142578125	-0.0	-0.0	-0.0	-0.0	-0.0	-0.0	-0.0	-0.0	-0.0	-0.0	-0.0	-0.0
1.1615	-0.0	-0.0	-0.0	-10.494766235351562	-4.69887113571167	-997.4078979492188	-0.0	-0.0	-0.0	-0.0	-0.0	-0.0	-0.0	-0.0	-0.0	-0.0	-0.0	-0.0
1.162	-0.0	-0.0	-0.0	-11.176522254943848	-4.348990440368652	-998.03271484375	-0.0	-0.0	-0.0	-0.0	-0.0	-0.0	-0.0	-0.0	-0.0	-0.0	-0.0	-0.0
1.1625	-0.0	-0.0	-0.0	-12.2604341506958	-3.972308158874512	-998.9456787109376	-0.0	-0.0	-0.0	-0.0	-0.0	-0.0	-0.0	-0.0	-0.0	-0.0	-0.0	-0.0
1.163	-0.0	-0.0	-0.0	-12.393797874450684	-4.106456279754639	-1001.971435546875	-0.0	-0.0	-0.0	-0.0	-0.0	-0.0	-0.0	-0.0	-0.0	-0.0	-0.0	-0.0
1.1635	-0.0	-0.0	-0.0	-12.865047454833984	-3.832607269287109	-1002.1221313476562	-0.0	-0.0	-0.0	-0.0	-0.0	-0.0	-0.0	-0.0	-0.0	-0.0	-0.0	-0.0
1.164	-0.0	-0.0	-0.0	-12.572587013244627	-4.036518096923828	-1004.3421020507812	-0.0	-0.0	-0.0	-0.0	-0.0	-0.0	-0.0	-0.0	-0.0	-0.0	-0.0	-0.0
1.1645	-0.0	-0.0	-0.0	-12.328680038452148	-4.022610664367676	-1006.79052734375	-0.0	-0.0	-0.0	-0.0	-0.0	-0.0	-0.0	-0.0	-0.0	-0.0	-0.0	-0.0
1.165	-0.0	-0.0	-0.0	-12.227537155151367	-4.634780883789063	-1009.433349609375	-0.0	-0.0	-0.0	-0.0	-0.0	-0.0	-0.0	-0.0	-0.0	-0.0	-0.0	-0.0
1.1655	-0.0	-0.0	-0.0	-12.489471435546877	-4.592137336730957	-1010.4038696289062	-0.0	-0.0	-0.0	-0.0	-0.0	-0.0	-0.0	-0.0	-0.0	-0.0	-0.0	-0.0
1.166	-0.0	-0.0	-0.0	-13.35006332397461	-4.729235649108887	-1010.92578125	-0.0	-0.0	-0.0	-0.0	-0.0	-0.0	-0.0	-0.0	-0.0	-0.0	-0.0	-0.0
1.1665	-0.0	-0.0	-0.0	-14.462462425231934	-4.509039878845215	-1013.0241088867188	-0.0	-0.0	-0.0	-0.0	-0.0	-0.0	-0.0	-0.0	-0.0	-0.0	-0.0	-0.0
1.167	-0.0	-0.0	-0.0	-15.438417434692385	-4.388775825500488	-1014.4570922851562	-0.0	-0.0	-0.0	-0.0	-0.0	-0.0	-0.0	-0.0	-0.0	-0.0	-0.0	-0.0
1.1675	-0.0	-0.0	-0.0	-16.986106872558594	-3.50738787651062	-1014.332763671875	-0.0	-0.0	-0.0	-0.0	-0.0	-0.0	-0.0	-0.0	-0.0	-0.0	-0.0	-0.0
1.168	-0.0	-0.0	-0.0	-17.752891540527344	-3.2665724754333496	-1016.06201171875	-0.0	-0.0	-0.0	-0.0	-0.0	-0.0	-0.0	-0.0	-0.0	-0.0	-0.0	-0.0
1.1685	-0.0	-0.0	-0.0	-18.66737937927246	-2.19267201423645	-1016.3632202148438	-0.0	-0.0	-0.0	-0.0	-0.0	-0.0	-0.0	-0.0	-0.0	-0.0	-0.0	-0.0
1.169	-0.0	-0.0	-0.0	-19.375732421875	-2.589040517807007	-1017.9710693359376	-0.0	-0.0	-0.0	-0.0	-0.0	-0.0	-0.0	-0.0	-0.0	-0.0	-0.0	-0.0
1.1695	-0.0	-0.0	-0.0	-19.65332794189453	-2.646920919418335	-1020.5183715820312	-0.0	-0.0	-0.0	-0.0	-0.0	-0.0	-0.0	-0.0	-0.0	-0.0	-0.0	-0.0
1.17	-0.0	-0.0	-0.0	-19.50221443176269	-2.8483128547668457	-1020.4749145507812	-0.0	-0.0	-0.0	-0.0	-0.0	-0.0	-0.0	-0.0	-0.0	-0.0	-0.0	-0.0
1.1705	-0.0	-0.0	-0.0	-19.23478126525879	-3.2086944580078125	-1023.0396118164062	-0.0	-0.0	-0.0	-0.0	-0.0	-0.0	-0.0	-0.0	-0.0	-0.0	-0.0	-0.0
1.171	-0.0	-0.0	-0.0	-19.204105377197266	-3.5996346473693848	-1024.221923828125	-0.0	-0.0	-0.0	-0.0	-0.0	-0.0	-0.0	-0.0	-0.0	-0.0	-0.0	-0.0
1.1715	-0.0	-0.0	-0.0	-19.306943893432617	-3.561903238296509	-1025.8524169921875	-0.0	-0.0	-0.0	-0.0	-0.0	-0.0	-0.0	-0.0	-0.0	-0.0	-0.0	-0.0
1.172	-0.0	-0.0	-0.0	-20.25078582763672	-3.771082162857056	-1026.2064208984375	-0.0	-0.0	-0.0	-0.0	-0.0	-0.0	-0.0	-0.0	-0.0	-0.0	-0.0	-0.0
1.1725	-0.0	-0.0	-0.0	-20.78016662597656	-3.682097434997559	-1026.7056884765625	-0.0	-0.0	-0.0	-0.0	-0.0	-0.0	-0.0	-0.0	-0.0	-0.0	-0.0	-0.0
1.173	-0.0	-0.0	-0.0	-20.99513816833496	-3.88830828666687	-1026.694091796875	-0.0	-0.0	-0.0	-0.0	-0.0	-0.0	-0.0	-0.0	-0.0	-0.0	-0.0	-0.0
1.1735	-0.0	-0.0	-0.0	-21.4105224609375	-3.628981828689575	-1026.0985107421875	-0.0	-0.0	-0.0	-0.0	-0.0	-0.0	-0.0	-0.0	-0.0	-0.0	-0.0	-0.0
1.174	-0.0	-0.0	-0.0	-21.502124786376957	-4.038985729217529	-1026.219970703125	-0.0	-0.0	-0.0	-0.0	-0.0	-0.0	-0.0	-0.0	-0.0	-0.0	-0.0	-0.0
1.1745	-0.0	-0.0	-0.0	-21.617185592651367	-3.743476867675781	-1028.11572265625	-0.0	-0.0	-0.0	-0.0	-0.0	-0.0	-0.0	-0.0	-0.0	-0.0	-0.0	-0.0
1.175	-0.0	-0.0	-0.0	-21.20373916625977	-4.488977909088135	-1030.6912841796875	-0.0	-0.0	-0.0	-0.0	-0.0	-0.0	-0.0	-0.0	-0.0	-0.0	-0.0	-0.0
1.1755	-0.0	-0.0	-0.0	-20.550613403320312	-4.602614402770996	-1030.225830078125	-0.0	-0.0	-0.0	-0.0	-0.0	-0.0	-0.0	-0.0	-0.0	-0.0	-0.0	-0.0
1.176	-0.0	-0.0	-0.0	-20.1026668548584	-5.258693695068359	-1031.99169921875	-0.0	-0.0	-0.0	-0.0	-0.0	-0.0	-0.0	-0.0	-0.0	-0.0	-0.0	-0.0
1.1765	-0.0	-0.0	-0.0	-18.76296043395996	-5.618163108825684	-1032.344970703125	-0.0	-0.0	-0.0	-0.0	-0.0	-0.0	-0.0	-0.0	-0.0	-0.0	-0.0	-0.0
1.177	-0.0	-0.0	-0.0	-17.931312561035156	-5.880017757415772	-1031.5140380859375	-0.0	-0.0	-0.0	-0.0	-0.0	-0.0	-0.0	-0.0	-0.0	-0.0	-0.0	-0.0
1.1775	-0.0	-0.0	-0.0	-18.021669387817383	-6.119905948638916	-1032.1109619140625	-0.0	-0.0	-0.0	-0.0	-0.0	-0.0	-0.0	-0.0	-0.0	-0.0	-0.0	-0.0
1.178	-0.0	-0.0	-0.0	-17.037351608276367	-6.300092697143555	-1031.5196533203125	-0.0	-0.0	-0.0	-0.0	-0.0	-0.0	-0.0	-0.0	-0.0	-0.0	-0.0	-0.0
1.1785	-0.0	-0.0	-0.0	-16.56082534790039	-5.914130210876465	-1031.5167236328125	-0.0	-0.0	-0.0	-0.0	-0.0	-0.0	-0.0	-0.0	-0.0	-0.0	-0.0	-0.0
1.179	-0.0	-0.0	-0.0	-15.611839294433594	-6.358168125152588	-1032.4635009765625	-0.0	-0.0	-0.0	-0.0	-0.0	-0.0	-0.0	-0.0	-0.0	-0.0	-0.0	-0.0
1.1795	-0.0	-0.0	-0.0	-13.411439895629885	-6.654563903808594	-1031.4097900390625	-0.0	-0.0	-0.0	-0.0	-0.0	-0.0	-0.0	-0.0	-0.0	-0.0	-0.0	-0.0
1.18	-0.0	-0.0	-0.0	-11.151083946228027	-6.893057346343994	-1033.288330078125	-0.0	-0.0	-0.0	-0.0	-0.0	-0.0	-0.0	-0.0	-0.0	-0.0	-0.0	-0.0
1.1805	-0.0	-0.0	-0.0	-8.861547470092773	-7.278990268707275	-1033.1690673828125	-0.0	-0.0	-0.0	-0.0	-0.0	-0.0	-0.0	-0.0	-0.0	-0.0	-0.0	-0.0
1.181	-0.0	-0.0	-0.0	-6.453005790710449	-7.159918308258057	-1031.521728515625	-0.0	-0.0	-0.0	-0.0	-0.0	-0.0	-0.0	-0.0	-0.0	-0.0	-0.0	-0.0
1.1815	-0.0	-0.0	-0.0	-4.579049110412598	-7.575766563415527	-1033.878662109375	-0.0	-0.0	-0.0	-0.0	-0.0	-0.0	-0.0	-0.0	-0.0	-0.0	-0.0	-0.0
1.182	-0.0	-0.0	-0.0	-3.271230936050415	-7.308692932128906	-1032.815185546875	-0.0	-0.0	-0.0	-0.0	-0.0	-0.0	-0.0	-0.0	-0.0	-0.0	-0.0	-0.0
1.1825	-0.0	-0.0	-0.0	-2.437506914138794	-7.962772369384766	-1032.4671630859375	-0.0	-0.0	-0.0	-0.0	-0.0	-0.0	-0.0	-0.0	-0.0	-0.0	-0.0	-0.0
1.183	-0.0	-0.0	-0.0	-1.6040596961975098	-7.694636821746826	-1032.8216552734375	-0.0	-0.0	-0.0	-0.0	-0.0	-0.0	-0.0	-0.0	-0.0	-0.0	-0.0	-0.0
